<svg t="1763383722735" class="icon" viewBox="0 0 1024 1024" version="1.1"
    xmlns="http://www.w3.org/2000/svg" p-id="5765" xmlns:xlink="http://www.w3.org/1999/xlink"
    width="200" height="200">
    <path
        d="M0 0m204.8 0l614.4 0q204.8 0 204.8 204.8l0 614.4q0 204.8-204.8 204.8l-614.4 0q-204.8 0-204.8-204.8l0-614.4q0-204.8 204.8-204.8Z"
        fill="#FF9FC6" p-id="5766"></path>
    <path
        d="M819.2 0H534.272A756.224 756.224 0 0 0 0 483.584V819.2a204.8 204.8 0 0 0 204.8 204.8h614.4a204.8 204.8 0 0 0 204.8-204.8V204.8a204.8 204.8 0 0 0-204.8-204.8z"
        fill="#FF99BE" p-id="5767"></path>
    <path
        d="M819.2 0h-3.84a754.944 754.944 0 0 0-539.392 1024H819.2a204.8 204.8 0 0 0 204.8-204.8V204.8a204.8 204.8 0 0 0-204.8-204.8z"
        fill="#FF8FB2" p-id="5768"></path>
    <path
        d="M497.152 721.152A751.104 751.104 0 0 0 560.384 1024H819.2a204.8 204.8 0 0 0 204.8-204.8V204.8a204.8 204.8 0 0 0-89.088-168.96 754.688 754.688 0 0 0-437.76 685.312z"
        fill="#FF8AA9" p-id="5769"></path>
    <path
        d="M108.070348 511.998714m54.305801-54.305801l295.604575-295.604576q54.305801-54.305801 108.611602 0l295.604576 295.604576q54.305801 54.305801 0 108.611601l-295.604576 295.604576q-54.305801 54.305801-108.611602 0l-295.604575-295.604576q-54.305801-54.305801 0-108.611601Z"
        fill="#FFEBF8" p-id="5770"></path>
    <path
        d="M747.52 680.704l112.384-112.384a79.872 79.872 0 0 0 0-112.64L568.32 164.096a79.872 79.872 0 0 0-112.64 0L164.096 455.68a79.872 79.872 0 0 0 0 112.64L312.32 716.8a499.968 499.968 0 0 0 435.2-35.84z"
        fill="#FFFFFF" p-id="5771"></path>
    <path
        d="M472.32 352.768m38.4 0l2.816 0q38.4 0 38.4 38.4l0 241.664q0 38.4-38.4 38.4l-2.816 0q-38.4 0-38.4-38.4l0-241.664q0-38.4 38.4-38.4Z"
        fill="#FFC0D8" p-id="5772"></path>
    <path
        d="M352.768 551.68m0-38.4l0-2.816q0-38.4 38.4-38.4l241.664 0q38.4 0 38.4 38.4l0 2.816q0 38.4-38.4 38.4l-241.664 0q-38.4 0-38.4-38.4Z"
        fill="#FFC0D8" p-id="5773"></path>
</svg>
