<?xml version="1.0" standalone="no"?><!DOCTYPE svg PUBLIC "-//W3C//DTD SVG 1.1//EN" "http://www.w3.org/Graphics/SVG/1.1/DTD/svg11.dtd"><svg t="1720974471009" class="icon" viewBox="0 0 1024 1024" version="1.1" xmlns="http://www.w3.org/2000/svg" p-id="4277" xmlns:xlink="http://www.w3.org/1999/xlink" width="200" height="200"><path d="M512 63.2c-212 0-384 172-384 384 0 184.8 131.2 340 305.6 376l80 138.4 80-138.4c172.8-38.4 302.4-192 302.4-376 0-212-172-384-384-384zM544 704h-64v-64h64v64z m66.4-312.8l-28.8 29.6c-22.4 24-37.6 44-37.6 91.2v64h-64v-79.2c0-35.2 14.4-68.8 37.6-92l40-40.8c12-11.2 19.2-27.2 19.2-45.6 0-35.2-28.8-64-64-64S448 284 448 319.2h-64c0-71.2 57.6-128.8 128.8-128.8 71.2 0 128.8 57.6 128.8 128.8-0.8 28-12.8 54.4-31.2 72z" p-id="4278"></path></svg>